<svg t="1632561850533" class="icon" viewBox="0 0 1024 1024" version="1.1" xmlns="http://www.w3.org/2000/svg" p-id="9500" width="200" height="200"><path d="M1023.692892 153.830331l-614.215735 0c-197.060882 0-358.292512 161.231631-358.292512 358.292512s161.231631 358.292512 358.292512 358.292512l614.215735 0L1023.692892 921.6l-614.215735 0c-225.212436 0-409.477157-184.264721-409.477157-409.477157s184.264721-409.477157 409.477157-409.477157l614.215735 0 0 51.184645z m0-51.184645l0 51.184645-614.215735 0c-197.060882 0-358.292512 161.231631-358.292512 358.292512s161.231631 358.292512 358.292512 358.292512l614.215735 0L1023.692892 921.6l-614.215735 0c-225.212436 0-409.477157-184.264721-409.477157-409.477157s184.264721-409.477157 409.477157-409.477157l614.215735 0z" fill="#2c2c2c" p-id="9501"></path><path d="M486.254124 665.676777c0-28.151555-23.03309-51.184645-51.18464499-51.184645s-51.184645 23.03309-51.18464401 51.184645 23.03309 51.184645 51.184644 51.184645 51.184645-23.03309 51.184645-51.184645z m51.184644 0c0 56.30310901-46.06618 102.369289-102.36928899 102.369289s-102.369289-46.06618-102.36928901-102.369289 46.06618-102.369289 102.369289-102.369289 102.369289 46.06618 102.369289 102.369289z m-51.184644-307.107868c0-28.151555-23.03309-51.184645-51.184645-51.18464401s-51.184645 23.03309-51.184644 51.184644 23.03309 51.184645 51.184644 51.18464501 51.184645-23.03309 51.184645-51.184645z m51.184644 0c0 56.30310901-46.06618 102.369289-102.369289 102.36929s-102.369289-46.06618-102.36928901-102.36929 46.06618-102.369289 102.36928901-102.369289 102.369289 46.06618 102.369289 102.369289z" fill="#2c2c2c" p-id="9502"></path></svg>