<?xml version="1.0" standalone="no"?><!DOCTYPE svg PUBLIC "-//W3C//DTD SVG 1.1//EN" "http://www.w3.org/Graphics/SVG/1.1/DTD/svg11.dtd"><svg t="1649067379884" class="icon" viewBox="0 0 1024 1024" version="1.1" xmlns="http://www.w3.org/2000/svg" p-id="1614" xmlns:xlink="http://www.w3.org/1999/xlink" width="200" height="200"><defs><style type="text/css">@font-face { font-family: feedback-iconfont; src: url("//at.alicdn.com/t/font_1031158_u69w8yhxdu.woff2?t=1630033759944") format("woff2"), url("//at.alicdn.com/t/font_1031158_u69w8yhxdu.woff?t=1630033759944") format("woff"), url("//at.alicdn.com/t/font_1031158_u69w8yhxdu.ttf?t=1630033759944") format("truetype"); }
</style></defs><path d="M991.304673 157.906542l-132.386293-132.386293C842.968224 7.975078 817.447975 0 791.927726 0c-25.520249 4.785047-46.255452 17.545171-63.800623 38.280374l-81.345795 127.601246c-97.29595-30.305296-212.137072-4.785047-287.102803 76.560748L240.052336 362.068536c-55.825545 55.825545-84.535826 132.386293-84.535825 208.94704 0 30.305296 4.785047 55.825545 12.760125 81.345795l-127.601247 81.345794c-20.735202 12.760125-33.495327 38.280374-38.280373 63.800623-4.785047 25.520249 4.785047 51.040498 25.520249 68.58567l132.386293 132.386293c12.760125 17.545171 33.495327 25.520249 55.825545 25.520249h7.975078c25.520249-4.785047 46.255452-17.545171 63.800623-38.280374l84.535825-127.601246c25.520249 7.975078 51.040498 12.760125 81.345795 12.760125 76.560748 0 153.121495-30.305296 208.94704-84.535826l43.065421-43.06542 76.560747-76.560748c55.825545-55.825545 84.535826-132.386293 84.535826-208.947041 0-30.305296-4.785047-55.825545-12.760125-81.345794l127.601246-81.345794c20.735202-12.760125 38.280374-38.280374 38.280374-63.800623-3.190031-31.900312-11.165109-57.420561-28.71028-73.370717zM216.127103 933.084112l-132.386293-132.386293 114.841121-71.775701c12.760125 17.545171 25.520249 33.495327 43.065421 46.255452 17.545171 17.545171 33.495327 30.305296 51.040498 43.065421l-76.560747 114.841121zM300.662928 717.757009c-38.280374-38.280374-63.800623-94.105919-63.800623-148.336448 0-54.23053 20.735202-110.056075 63.800623-148.336449l17.545172-17.545171c17.545171 7.975078 33.495327 12.760125 46.255451 17.545171 17.545171 4.785047 25.520249 4.785047 38.280374 17.545171 12.760125 12.760125 12.760125 20.735202 17.545172 38.280374 4.785047 20.735202 7.975078 51.040498 43.06542 81.345795 30.305296 30.305296 59.015576 38.280374 81.345795 43.06542 17.545171 4.785047 25.520249 4.785047 38.280373 17.545172 12.760125 12.760125 12.760125 20.735202 17.545172 38.280373 4.785047 12.760125 4.785047 30.305296 17.545171 46.255452l-17.545171 17.545171c-84.535826 79.750779-218.517134 79.750779-299.862929-3.190031z m416.299066-119.626168l-33.495327 33.495327c-4.785047-20.735202-7.975078-46.255452-43.065421-81.345794-30.305296-30.305296-59.015576-38.280374-81.345794-43.065421-17.545171-4.785047-25.520249-4.785047-38.280374-17.545171-12.760125-12.760125-12.760125-20.735202-17.545171-38.280374-4.785047-20.735202-7.975078-51.040498-43.065421-81.345794-30.305296-30.305296-59.015576-38.280374-81.345794-43.065421l33.495327-33.495327c81.345794-81.345794 216.922118-81.345794 296.672897 0 38.280374 38.280374 63.800623 94.105919 63.800623 148.336449 7.975078 62.205607-14.35514 118.031153-55.825545 156.311526zM819.042991 287.102804c-12.760125-17.545171-25.520249-33.495327-38.280374-46.255452-17.545171-17.545171-33.495327-30.305296-51.040499-43.065421l71.775701-114.841121 132.386293 132.386293-114.841121 71.775701z" p-id="1615" fill="#2c2c2c"></path></svg>