<svg t="1632561952696" class="icon" viewBox="0 0 1024 1024" version="1.1" xmlns="http://www.w3.org/2000/svg" p-id="10016" width="200" height="200"><path d="M0.307108 870.169669l614.215735 0c197.060882 0 358.292512-161.231631 358.292512-358.292512s-161.231631-358.292512-358.292512-358.292512l-614.215735 0L0.307108 102.4l614.215735 0c225.212436 0 409.477157 184.264721 409.477157 409.477157s-184.264721 409.477157-409.477157 409.477157l-614.215735 0 0-51.184645z m0 51.184645l0-51.184645 614.215735 0c197.060882 0 358.292512-161.231631 358.292512-358.292512s-161.231631-358.292512-358.292512-358.292512l-614.215735 0L0.307108 102.4l614.215735 0c225.212436 0 409.477157 184.264721 409.477157 409.477157s-184.264721 409.477157-409.477157 409.477157l-614.215735 0z" fill="#2c2c2c" p-id="10017"></path><path d="M537.745876 358.323223c0 28.151555 23.03309 51.184645 51.18464499 51.184645s51.184645-23.03309 51.18464401-51.184645-23.03309-51.184645-51.184644-51.184645-51.184645 23.03309-51.184645 51.184645z m-51.184644 0c0-56.30310901 46.06618-102.369289 102.36928899-102.369289s102.369289 46.06618 102.36928901 102.369289-46.06618 102.369289-102.369289 102.369289-102.369289-46.06618-102.369289-102.369289z m51.184644 307.107868c0 28.151555 23.03309 51.184645 51.184645 51.18464401s51.184645-23.03309 51.184644-51.184644-23.03309-51.184645-51.184644-51.18464501-51.184645 23.03309-51.184645 51.184645z m-51.184644 0c0-56.30310901 46.06618-102.369289 102.369289-102.36929s102.369289 46.06618 102.36928901 102.36929-46.06618 102.369289-102.36928901 102.369289-102.369289-46.06618-102.369289-102.369289z" fill="#2c2c2c" p-id="10018"></path></svg>