<svg t="1632560350719" class="icon" viewBox="0 0 1024 1024" version="1.1" xmlns="http://www.w3.org/2000/svg" p-id="2167" width="200" height="200"><path d="M563.2 887.466667h-409.6c-10.24 0-17.066667-6.826667-17.066667-17.066667v-341.333333c0-10.24 6.826667-17.066667 17.066667-17.066667h68.266667c10.24 0 17.066667 6.826667 17.066666 17.066667V785.066667h238.933334V221.866667c0-10.24 6.826667-17.066667 17.066666-17.066667h273.066667c10.24 0 17.066667 6.826667 17.066667 17.066667v170.666666c0 10.24-6.826667 17.066667-17.066667 17.066667h-68.266667c-10.24 0-17.066667-6.826667-17.066666-17.066667V307.2h-102.4v563.2c0 10.24-6.826667 17.066667-17.066667 17.066667zM170.666667 853.333333h375.466666V290.133333c0-10.24 6.826667-17.066667 17.066667-17.066666h136.533333c10.24 0 17.066667 6.826667 17.066667 17.066666V375.466667h34.133333V238.933333h-238.933333v563.2c0 10.24-6.826667 17.066667-17.066667 17.066667h-273.066666c-10.24 0-17.066667-6.826667-17.066667-17.066667V546.133333H170.666667v307.2z" fill="#2c2c2c" p-id="2168"></path><path d="M938.666667 1024h-853.333334C37.546667 1024 0 986.453333 0 938.666667v-853.333334C0 37.546667 37.546667 0 85.333333 0h853.333334C986.453333 0 1024 37.546667 1024 85.333333v853.333334c0 47.786667-37.546667 85.333333-85.333333 85.333333zM85.333333 34.133333C58.026667 34.133333 34.133333 58.026667 34.133333 85.333333v853.333334c0 27.306667 23.893333 51.2 51.2 51.2h853.333334c27.306667 0 51.2-23.893333 51.2-51.2v-853.333334c0-27.306667-23.893333-51.2-51.2-51.2h-853.333334z" fill="#2c2c2c" p-id="2169"></path><path d="M187.733333 221.866667m-17.066666 0a17.066667 17.066667 0 1 0 34.133333 0 17.066667 17.066667 0 1 0-34.133333 0Z" fill="#2c2c2c" p-id="2170"></path><path d="M187.733333 290.133333m-17.066666 0a17.066667 17.066667 0 1 0 34.133333 0 17.066667 17.066667 0 1 0-34.133333 0Z" fill="#2c2c2c" p-id="2171"></path><path d="M221.866667 256m-17.066667 0a17.066667 17.066667 0 1 0 34.133333 0 17.066667 17.066667 0 1 0-34.133333 0Z" fill="#2c2c2c" p-id="2172"></path><path d="M153.6 256m-17.066667 0a17.066667 17.066667 0 1 0 34.133334 0 17.066667 17.066667 0 1 0-34.133334 0Z" fill="#2c2c2c" p-id="2173"></path></svg>