<svg t="1632561933153" class="icon" viewBox="0 0 1024 1024" version="1.1" xmlns="http://www.w3.org/2000/svg" p-id="9844" width="200" height="200"><path d="M153.830331 0.307108l0 614.215735c0 197.060882 161.231631 358.292512 358.292512 358.292512s358.292512-161.231631 358.292512-358.292512l0-614.215735L921.6 0.307108l0 614.215735c0 225.212436-184.264721 409.477157-409.477157 409.477157s-409.477157-184.264721-409.477157-409.477157l0-614.215735 51.184645 0z m-51.184645 0l51.184645 0 0 614.215735c0 197.060882 161.231631 358.292512 358.292512 358.292512s358.292512-161.231631 358.292512-358.292512l0-614.215735L921.6 0.307108l0 614.215735c0 225.212436-184.264721 409.477157-409.477157 409.477157s-409.477157-184.264721-409.477157-409.477157l0-614.215735z" fill="#2c2c2c" p-id="9845"></path><path d="M665.676777 537.745876c-28.151555 0-51.184645 23.03309-51.184645 51.18464499s23.03309 51.184645 51.184645 51.18464401 51.184645-23.03309 51.184645-51.184644-23.03309-51.184645-51.184645-51.184645z m0-51.184644c56.30310901 0 102.369289 46.06618 102.369289 102.36928899s-46.06618 102.369289-102.369289 102.36928901-102.369289-46.06618-102.369289-102.369289 46.06618-102.369289 102.369289-102.369289z m-307.107868 51.184644c-28.151555 0-51.184645 23.03309-51.18464401 51.184645s23.03309 51.184645 51.184644 51.184644 51.184645-23.03309 51.18464501-51.184644-23.03309-51.184645-51.184645-51.184645z m0-51.184644c56.30310901 0 102.369289 46.06618 102.36929 102.369289s-46.06618 102.369289-102.36929 102.36928901-102.369289-46.06618-102.369289-102.36928901 46.06618-102.369289 102.369289-102.369289z" fill="#2c2c2c" p-id="9846"></path></svg>