<svg t="1632561964910" class="icon" viewBox="0 0 1024 1024" version="1.1" xmlns="http://www.w3.org/2000/svg" p-id="10903" width="200" height="200"><path d="M870.169669 1023.692892v-614.215735c0-197.060882-161.231631-358.292512-358.292512-358.292512s-358.292512 161.231631-358.292512 358.292512v614.215735H102.4v-614.215735c0-225.212436 184.264721-409.477157 409.477157-409.477157s409.477157 184.264721 409.477157 409.477157v614.215735h-51.184645z m51.184645 0h-51.184645v-614.215735c0-197.060882-161.231631-358.292512-358.292512-358.292512s-358.292512 161.231631-358.292512 358.292512v614.215735H102.4v-614.215735c0-225.212436 184.264721-409.477157 409.477157-409.477157s409.477157 184.264721 409.477157 409.477157v614.215735z" fill="#2c2c2c" p-id="10904"></path><path d="M358.323223 486.254124c28.151555 0 51.184645-23.03309 51.184645-51.184645s-23.03309-51.184645-51.184645-51.184644-51.184645 23.03309-51.184645 51.184644 23.03309 51.184645 51.184645 51.184645z m0 51.184644c-56.303109 0-102.369289-46.06618-102.369289-102.369289s46.06618-102.369289 102.369289-102.369289 102.369289 46.06618 102.369289 102.369289-46.06618 102.369289-102.369289 102.369289z m307.107868-51.184644c28.151555 0 51.184645-23.03309 51.184644-51.184645s-23.03309-51.184645-51.184644-51.184644-51.184645 23.03309-51.184645 51.184644 23.03309 51.184645 51.184645 51.184645z m0 51.184644c-56.303109 0-102.369289-46.06618-102.36929-102.369289s46.06618-102.369289 102.36929-102.369289 102.369289 46.06618 102.369289 102.369289-46.06618 102.369289-102.369289 102.369289z" fill="#2c2c2c" p-id="10905"></path></svg>